<svg version="1.1" xmlns="http://www.w3.org/2000/svg" xmlns:xlink="http://www.w3.org/1999/xlink" width="38.61112" height="39.65869" viewBox="0,0,38.61112,39.65869"><g transform="translate(-221.33804,-160.65484)"><g data-paper-data="{&quot;isPaintingLayer&quot;:true}" fill="#d7edff" fill-rule="nonzero" stroke="#000000" stroke-width="1.5" stroke-linecap="butt" stroke-linejoin="miter" stroke-miterlimit="10" stroke-dasharray="" stroke-dashoffset="0" style="mix-blend-mode: normal"><path d="M222.24686,199.56353c-0.00645,-3.3503 0.14005,-22.01127 -0.15876,-37.56052c-0.01292,-0.67225 2.18445,-0.46912 5.54564,-0.45456c3.22961,0.01398 7.52446,-0.17388 12.41102,-0.14302c3.86267,0.02439 7.42471,0.0563 10.36672,-0.00072c4.8801,-0.09459 8.05421,-0.22282 8.06468,0.51607c0.22526,15.8847 0.62311,22.37923 0.72301,37.52226c0.00134,0.20362 -0.17385,-0.01703 -3.21659,0.07529c-2.84178,0.08623 -6.79207,0.04797 -11.20996,-0.05457c-1.24007,-0.02878 -2.26548,-0.07111 -3.51418,-0.10644c-1.98424,-0.05614 -4.16474,-0.0946 -5.88277,-0.03294c-2.77162,0.09948 -8.34861,0.15306 -10.40698,0.116c-2.77077,-0.04988 -2.72075,0.68588 -2.72183,0.12316z"/></g></g></svg>